<svg width="16" height="16" viewBox="0 0 16 16" fill="none" xmlns="http://www.w3.org/2000/svg">
<g clip-path="url(#clip0_453_323)">
<rect width="16" height="16" rx="8" fill="white"/>
<path fill-rule="evenodd" clip-rule="evenodd" d="M8.9891 13.1074C8.06314 13.2041 6.96043 13.1427 6.05645 12.8828C5.01886 12.5842 3.87471 11.6909 3.16438 10.8758C3.48995 11.7792 3.85865 12.4546 3.77493 13.4573L4.98926 12.5295C5.45097 12.8054 5.96089 13.0106 6.50294 13.1284L6.84796 14.4095H8.47242L8.9891 13.1074ZM12.7006 4.34333L11.5514 3.2002L10.3675 3.88069C10.206 3.78396 10.0377 3.69648 9.86518 3.61741C12.0638 6.07023 11.1776 11.2812 6.97142 12.2073C10.7734 11.8995 13.1099 8.81998 12.0342 5.49235L12.7006 4.34333Z" fill="#484848"/>
<path fill-rule="evenodd" clip-rule="evenodd" d="M3.41436 10.7615C4.62784 12.3488 7.3677 13.3826 10.4889 12.4556L11.6441 13.1193L12.7933 11.9761L12.11 10.7985C12.3874 10.3392 12.5937 9.83203 12.7121 9.29285L14 8.94966V7.33379L12.685 6.98303C12.7197 7.86792 12.5362 8.74946 12.1083 9.56454C10.5862 12.4926 5.82864 13.7115 3.41436 10.7615ZM8.34356 2H6.7191L6.36562 3.31389C5.8278 3.44763 4.40967 4.64629 4.06381 3.66718L3 5.9198C5.11578 4.45282 5.23332 4.18197 6.53982 4.18197C8.75623 4.18197 10.7223 5.95513 10.7511 8.15308C10.8898 5.52193 10.1211 4.10542 8.68942 3.28277L8.34356 2Z" fill="#484848"/>
<path d="M8.996 7.01318H8.6093V8.84996H8.996V7.01318Z" fill="#484848"/>
<path d="M9 8.85392H8.60498V7.00903H9V8.85392ZM8.6133 8.84581H8.99186V7.01732H8.6133V8.84581Z" fill="#484848"/>
<path d="M8.28986 9.44937H8.31257V9.42038C8.31257 9.40071 8.30477 9.39087 8.28899 9.39087C8.28119 9.39087 8.27513 9.39363 8.27079 9.39915C8.26646 9.40468 8.26421 9.41227 8.26421 9.42176C8.26421 9.43263 8.26646 9.43988 8.27131 9.44368C8.27599 9.44765 8.28241 9.44937 8.28986 9.44937Z" fill="#484848"/>
<path d="M8.59735 9.4171C8.60272 9.42521 8.60636 9.43367 8.60879 9.44195C8.61538 9.43816 8.62093 9.43315 8.62526 9.42763C8.62976 9.42176 8.63202 9.41572 8.63202 9.40951C8.63202 9.40295 8.62976 9.39846 8.62491 9.39536C8.6204 9.39225 8.61382 9.39087 8.6055 9.39087C8.59874 9.39087 8.59267 9.39156 8.58747 9.39294C8.5821 9.39415 8.57881 9.39553 8.57707 9.39639C8.58522 9.40191 8.59198 9.40882 8.59735 9.4171Z" fill="#484848"/>
<path d="M1.00006 9.0524C1.00422 9.32318 1.1857 9.6145 1.57448 9.6145H8.98961V9.23913H4.92724L4.93382 9.2324L4.70953 9.01495L4.49165 9.23896H4.21554L3.99298 9.02306L3.80509 9.21635L3.60576 9.02306L3.39585 9.23896H1.57466C1.44206 9.23896 1.38001 9.13938 1.37862 9.04671C1.37775 8.98993 1.39803 8.93643 1.43426 8.89984C1.46927 8.86446 1.5178 8.84565 1.57466 8.84565L8.13785 8.85324L8.1382 8.84565H8.23007V7.01733H7.85168V8.47046H7.45961V8.27389C7.45961 7.87989 7.16183 7.70041 6.88519 7.70041H6.06308C5.90812 7.70041 5.77569 7.78497 5.68001 7.94513L5.67239 7.9579V7.703L5.29522 7.89145V8.47046H4.90176V7.70179H4.71248C4.609 7.70179 4.52476 7.78635 4.52476 7.89025V8.47046H4.12991V7.70179H3.94063C3.83629 7.70179 3.75135 7.78635 3.75135 7.89025V8.47046H3.20969V8.27527C3.20969 7.99914 3.07051 7.70179 2.76492 7.70179H1.68524C1.68334 7.87212 1.56547 8.04332 1.53964 8.07853H2.76492C2.87048 8.07853 2.91867 8.18053 2.91867 8.2751V8.46287H2.91451L1.57466 8.47029C1.40774 8.47029 1.26509 8.52534 1.16195 8.62941C1.05674 8.73589 0.997809 8.89 1.00006 9.0524ZM8.22903 9.39152C8.23284 9.38272 8.23769 9.37564 8.24376 9.37029C8.24983 9.36477 8.25693 9.36098 8.26473 9.35873C8.27253 9.35614 8.28068 9.35494 8.28935 9.35494C8.29801 9.35494 8.30633 9.35614 8.31431 9.35821C8.32245 9.36046 8.32921 9.36425 8.33528 9.36926C8.34135 9.37426 8.34585 9.38117 8.34949 9.38962C8.35296 9.39825 8.35487 9.40895 8.35487 9.42155V9.44916H8.55125C8.55454 9.44916 8.55836 9.44899 8.56217 9.44899C8.56598 9.44882 8.5698 9.44796 8.57326 9.44727C8.57049 9.43864 8.56598 9.43139 8.55992 9.42466C8.55385 9.4181 8.54709 9.4124 8.53964 9.40705C8.5379 9.40585 8.53686 9.40447 8.53634 9.40274C8.53565 9.40101 8.5353 9.39877 8.5353 9.39566V9.37634C8.5353 9.37375 8.53756 9.37133 8.54154 9.36874C8.54588 9.3665 8.55108 9.36425 8.55766 9.36201C8.56442 9.35994 8.57205 9.35821 8.58037 9.35701C8.58869 9.3558 8.59701 9.35494 8.60533 9.35494C8.61746 9.35494 8.62786 9.35614 8.6367 9.35839C8.64554 9.36063 8.65282 9.36391 8.65872 9.36788C8.66444 9.37219 8.66877 9.37703 8.67137 9.38272C8.67414 9.38824 8.67536 9.39463 8.67536 9.40101C8.67536 9.40636 8.67466 9.41137 8.67276 9.4162C8.67102 9.42103 8.66894 9.42535 8.66617 9.42932C8.6634 9.43329 8.6601 9.43708 8.65664 9.44036C8.65334 9.44364 8.64988 9.4464 8.64658 9.44899C8.64866 9.44899 8.65092 9.44916 8.65317 9.44916H8.71158C8.7173 9.44916 8.72112 9.44761 8.72268 9.44485C8.72424 9.44174 8.72493 9.43657 8.72493 9.42897V9.3841C8.72493 9.38238 8.72597 9.38134 8.72788 9.38134H8.76428C8.76636 9.38134 8.76722 9.38238 8.76722 9.3841V9.43294C8.76722 9.43915 8.7693 9.44347 8.77329 9.44571C8.7771 9.44778 8.78161 9.44899 8.78646 9.44899C8.78993 9.44899 8.79305 9.44847 8.79547 9.44778C8.79773 9.44709 8.79929 9.44571 8.80033 9.44433C8.80137 9.44278 8.80206 9.44054 8.80241 9.43812C8.80258 9.43536 8.80258 9.43208 8.80258 9.42811V9.38427C8.80258 9.38255 8.80362 9.38151 8.8057 9.38151H8.8421C8.84418 9.38151 8.84505 9.38255 8.84505 9.38427V9.43294C8.84505 9.43967 8.84713 9.44399 8.85111 9.44606C8.8551 9.4483 8.85995 9.44934 8.86498 9.44934C8.86879 9.44934 8.87174 9.44882 8.87382 9.44813C8.87555 9.44744 8.87711 9.44606 8.87815 9.44433C8.87919 9.44278 8.87971 9.44054 8.87989 9.43777C8.88006 9.43519 8.88041 9.43191 8.88041 9.42794V9.36305C8.88041 9.36098 8.8811 9.36029 8.88318 9.36029H8.91958C8.92166 9.36029 8.92253 9.36098 8.92253 9.36305V9.44796C8.92253 9.46073 8.91993 9.47039 8.91438 9.47643C8.90901 9.48247 8.90017 9.48558 8.88751 9.48558H8.87105C8.86325 9.48558 8.85683 9.48403 8.85215 9.48126C8.8473 9.47833 8.84349 9.47453 8.84106 9.4697C8.83829 9.47574 8.83395 9.48006 8.82841 9.4823C8.82251 9.48437 8.81506 9.48558 8.80518 9.48558H8.79357C8.78577 9.48558 8.77935 9.48403 8.77433 9.48126C8.76948 9.47833 8.76566 9.47453 8.76324 9.4697C8.76046 9.47591 8.75613 9.48023 8.75058 9.4823C8.74504 9.48454 8.73724 9.48558 8.72701 9.48558H8.64364C8.63653 9.48558 8.62977 9.48489 8.62318 9.48351C8.61694 9.4823 8.61088 9.47971 8.60498 9.47626C8.5984 9.47971 8.59129 9.4823 8.58401 9.48351C8.57673 9.48472 8.57014 9.48558 8.56425 9.48558H8.35417V9.4911C8.35417 9.50974 8.34932 9.52355 8.33979 9.53269C8.33043 9.54201 8.31552 9.5465 8.29524 9.5465H8.25173C8.24965 9.5465 8.24879 9.54546 8.24879 9.54357V9.51354C8.24879 9.51147 8.24983 9.51043 8.25173 9.51043H8.28605C8.29004 9.51043 8.29385 9.50991 8.29715 9.50939C8.30044 9.5087 8.30321 9.50732 8.30529 9.5056C8.30755 9.50387 8.30928 9.50128 8.31032 9.498C8.31153 9.49473 8.31205 9.49041 8.31205 9.48541H8.28345C8.26404 9.48541 8.24913 9.48057 8.23839 9.47125C8.22799 9.46194 8.22279 9.44606 8.22279 9.42345C8.22348 9.41102 8.22539 9.40015 8.22903 9.39152ZM8.07511 9.45244C8.07511 9.45054 8.07615 9.44951 8.07806 9.44951H8.12936C8.13439 9.44951 8.13838 9.44916 8.14132 9.44847C8.14427 9.44778 8.14652 9.44658 8.14808 9.44502C8.14964 9.44347 8.15051 9.4414 8.15103 9.43881C8.15155 9.43622 8.15172 9.43311 8.15172 9.42932V9.41327C8.15172 9.4055 8.14947 9.39998 8.14496 9.39653C8.14045 9.39308 8.13369 9.39135 8.12486 9.39135H8.09054C8.08846 9.39135 8.08759 9.39031 8.08759 9.38842V9.35839C8.08759 9.35649 8.08863 9.35545 8.09054 9.35545H8.14254C8.15952 9.35545 8.17252 9.35977 8.18171 9.3684C8.19089 9.37703 8.1954 9.39049 8.1954 9.40895V9.43484C8.1954 9.4445 8.19436 9.45262 8.19263 9.45917C8.19072 9.46573 8.18795 9.47091 8.18431 9.47471C8.18067 9.4785 8.17599 9.48144 8.17027 9.48299C8.16455 9.48472 8.15796 9.48558 8.15033 9.48558H8.07806C8.07598 9.48558 8.07511 9.48454 8.07511 9.48264V9.45244ZM4.71022 9.06138L4.8872 9.23292L4.7149 9.40913L4.53897 9.23758L4.71022 9.06138ZM3.99367 9.06966L4.17064 9.2412L3.99835 9.41741L3.82242 9.24586L3.99367 9.06966ZM3.60645 9.06966L3.78342 9.2412L3.61113 9.41741L3.4352 9.24586L3.60645 9.06966ZM5.67221 8.46632C5.67221 8.36501 5.70688 8.27027 5.76997 8.19951C5.84121 8.1196 5.94261 8.07732 6.06308 8.07732H6.88519C7.02091 8.07732 7.08261 8.17915 7.08261 8.27389V8.47046H5.67239V8.46632H5.67221ZM5.67221 8.65875V8.65737H5.67637H5.68053V8.66272H5.67221V8.65875Z" fill="#484848"/>
</g>
<defs>
<clipPath id="clip0_453_323">
<rect width="16" height="16" rx="8" fill="white"/>
</clipPath>
</defs>
</svg>
